<?xml version="1.0" standalone="no"?>
<!DOCTYPE svg PUBLIC "-//W3C//DTD SVG 20010904//EN"
 "http://www.w3.org/TR/2001/REC-SVG-20010904/DTD/svg10.dtd">
<svg version="1.0" xmlns="http://www.w3.org/2000/svg"
 width="1217.000000pt" height="1217.000000pt" viewBox="0 0 1217.000000 1217.000000"
 preserveAspectRatio="xMidYMid meet">
<metadata>
Created by potrace 1.14, written by Peter Selinger 2001-2017
</metadata>
<g transform="translate(0.000000,1217.000000) scale(0.100000,-0.100000)"
fill="#000000" stroke="none">
<path d="M3632 6863 c-6 -2 -9 -10 -6 -15 5 -7 2 -8 -7 -2 -20 12 -40 14 -33
3 3 -5 10 -6 16 -3 7 4 8 2 4 -4 -5 -9 -13 -9 -28 -1 -13 7 -18 7 -14 1 3 -6
2 -13 -4 -17 -5 -3 -10 -1 -10 4 0 6 -4 11 -9 11 -4 0 -7 -11 -6 -24 3 -19 -1
-24 -16 -21 -24 5 -25 -10 -1 -25 16 -11 16 -11 -2 -6 -13 5 -17 2 -13 -9 7
-18 -9 -30 -19 -14 -5 8 -3 9 6 4 9 -5 11 -4 6 4 -13 20 -27 1 -15 -20 12 -24
2 -41 -11 -19 -5 8 -12 11 -16 8 -3 -4 9 -16 27 -27 19 -12 28 -21 21 -21 -7
0 -10 -5 -6 -12 5 -7 3 -8 -6 -3 -10 6 -11 4 -5 -11 4 -10 8 -27 9 -36 0 -13
6 -17 21 -13 11 3 14 2 8 -1 -7 -3 -13 -19 -13 -35 0 -18 -5 -27 -12 -25 -7 1
-10 1 -5 -1 4 -3 5 -9 2 -14 -3 -5 -1 -18 5 -29 13 -24 7 -26 -14 -4 -11 10
-16 11 -16 3 0 -6 8 -18 18 -25 13 -11 14 -13 1 -9 -9 3 -22 -1 -29 -9 -7 -9
-16 -13 -21 -10 -5 3 -9 1 -9 -5 0 -5 9 -9 19 -8 11 0 18 4 15 8 -10 16 15 18
27 2 8 -9 9 -14 2 -10 -6 4 -21 -5 -34 -20 -12 -16 -19 -20 -16 -10 4 9 2 17
-3 17 -6 0 -10 -5 -10 -11 0 -5 -5 -7 -10 -4 -6 4 -7 11 -4 17 4 7 2 8 -5 4
-6 -4 -9 -11 -6 -16 10 -16 -12 -20 -25 -5 -8 10 -17 12 -29 5 -9 -5 -23 -5
-31 0 -7 4 -19 6 -27 3 -7 -3 -13 0 -13 7 0 6 5 8 12 4 7 -5 8 -3 3 6 -6 10
-11 10 -20 -3 -13 -18 -30 -24 -20 -7 3 6 1 10 -4 10 -6 0 -11 -4 -11 -10 0
-5 -7 -10 -17 -10 -14 0 -14 -3 3 -22 18 -21 18 -22 0 -8 -10 8 -29 15 -43 16
-28 1 -44 20 -36 41 4 10 9 11 18 3 9 -8 14 -6 19 5 3 10 2 13 -5 10 -5 -4
-17 -1 -26 7 -9 7 -14 8 -10 2 4 -7 1 -16 -6 -22 -15 -11 -48 -12 -41 0 3 4
-1 8 -9 8 -8 0 -17 7 -21 15 -5 13 -3 13 18 0 12 -8 26 -12 31 -8 4 5 5 2 0
-6 -5 -9 -4 -12 3 -7 16 10 15 27 0 25 -28 -3 -39 1 -32 14 4 6 4 9 -1 5 -4
-4 -21 0 -37 8 -23 12 -27 18 -19 32 7 12 5 22 -7 35 -9 10 -12 17 -7 15 6 -2
20 7 33 20 18 18 20 24 8 28 -8 3 -13 14 -11 25 2 10 -1 22 -7 25 -6 4 -8 3
-5 -3 3 -5 -1 -10 -10 -10 -13 0 -11 4 6 18 21 17 21 18 1 24 -11 3 -23 4 -28
1 -4 -2 -8 10 -8 27 1 21 -4 32 -14 33 -8 1 -19 3 -25 4 -5 1 -14 2 -20 0 -5
-1 -4 4 3 11 18 19 15 28 -8 22 -12 -3 -20 0 -20 6 0 7 5 9 12 5 7 -4 8 -3 4
5 -6 9 -11 9 -22 0 -11 -9 -14 -9 -14 1 0 9 -4 9 -17 -1 -11 -10 -14 -10 -9
-1 5 8 1 12 -11 12 -11 0 -25 -6 -32 -12 -11 -11 -12 -10 -7 0 6 9 1 11 -18 8
-17 -3 -24 -1 -20 6 6 10 -10 7 -56 -10 -11 -4 -13 -2 -5 9 6 8 3 7 -7 -3 -19
-21 -33 -24 -22 -5 6 8 3 8 -9 -1 -9 -8 -21 -11 -26 -7 -7 4 -8 -1 -4 -11 5
-13 3 -15 -7 -9 -10 6 -12 4 -6 -10 6 -16 4 -16 -10 -4 -16 13 -16 12 -6 -7 9
-16 8 -21 -3 -21 -8 0 -12 4 -9 8 2 4 -1 11 -7 15 -7 4 -9 3 -6 -3 4 -6 0 -16
-8 -23 -8 -7 -12 -16 -9 -21 3 -5 7 -21 10 -35 4 -22 2 -25 -17 -19 -14 5 -19
3 -15 -3 3 -6 0 -13 -6 -16 -7 -3 -2 -3 12 0 23 5 23 4 5 -7 -19 -12 -19 -12
0 -20 18 -7 18 -8 2 -8 -10 -1 -15 -6 -12 -11 4 -6 11 -7 17 -4 7 4 8 2 4 -5
-4 -6 -11 -9 -16 -6 -5 3 -12 1 -15 -5 -4 -6 -2 -9 3 -8 6 2 10 -1 10 -7 0 -5
-5 -9 -11 -7 -7 2 -6 -2 1 -11 7 -8 10 -17 7 -21 -3 -3 1 -2 7 4 14 12 29 13
27 3 -4 -24 2 -53 12 -53 5 0 7 5 3 12 -4 7 -3 8 5 4 6 -4 9 -12 6 -17 -6 -8
9 -13 29 -10 5 1 4 -4 -2 -12 -10 -11 -9 -17 5 -28 11 -9 14 -10 9 -1 -11 18
5 15 21 -5 14 -17 14 -17 9 0 -8 25 3 21 14 -5 7 -19 9 -19 9 -5 1 10 6 15 12
12 6 -4 8 -14 5 -24 -5 -13 -4 -13 8 2 13 16 14 16 20 1 6 -16 8 -16 20 1 10
14 15 15 21 5 6 -9 4 -11 -6 -5 -8 5 -11 4 -6 0 4 -5 17 -9 28 -10 14 -1 18 3
14 14 -5 13 -3 12 12 -1 14 -13 22 -14 38 -5 11 6 30 12 43 13 18 1 21 -3 17
-20 -4 -14 -3 -17 3 -8 7 10 15 8 38 -10 16 -13 37 -32 46 -44 19 -23 64 -23
51 0 -3 6 -2 7 2 3 5 -4 10 -13 11 -20 5 -30 10 -43 19 -49 6 -5 5 -8 -4 -8
-7 0 -11 -6 -8 -14 4 -10 1 -13 -9 -9 -15 6 -20 23 -6 23 5 0 9 7 9 16 0 14
-2 14 -14 -2 -7 -10 -11 -24 -9 -31 3 -6 2 -14 -2 -16 -4 -2 -1 -2 7 0 12 3
12 1 0 -13 -15 -19 -21 -47 -8 -38 5 3 9 -1 9 -8 0 -10 3 -9 11 2 9 13 10 13
6 0 -2 -8 -10 -14 -16 -13 -11 3 -13 -3 -13 -32 0 -41 3 -56 11 -50 6 3 8 -5
5 -19 -3 -18 2 -29 18 -40 12 -9 17 -16 10 -16 -7 0 -10 -4 -7 -10 4 -6 -1 -7
-11 -3 -11 4 -15 2 -11 -4 4 -6 -1 -17 -11 -24 -15 -13 -16 -12 -4 3 12 15 11
16 -12 14 -14 -1 -29 -6 -34 -11 -4 -4 -2 -5 5 -1 6 3 14 2 17 -3 7 -11 -13
-9 -31 2 -7 5 -13 4 -13 0 0 -5 6 -15 13 -22 10 -11 9 -12 -3 -5 -8 5 -24 9
-35 9 -14 0 -19 6 -17 20 2 19 2 19 -11 2 -14 -17 -47 -15 -47 3 0 4 -7 10
-14 13 -11 4 -13 1 -9 -11 6 -15 5 -16 -12 -2 -14 11 -17 12 -11 1 6 -9 5 -12
-5 -9 -8 3 -13 12 -11 19 1 8 -4 5 -13 -5 -10 -13 -15 -15 -15 -6 0 9 -5 8
-16 -6 -8 -10 -13 -13 -9 -6 5 9 0 11 -19 6 -14 -3 -37 -7 -50 -8 -13 0 -24
-5 -23 -11 1 -5 -4 -9 -11 -7 -10 2 -10 -2 -3 -16 7 -14 6 -19 -5 -20 -7 -1
-20 -3 -28 -4 -8 -1 -12 -7 -9 -14 2 -7 12 -10 21 -7 15 4 15 3 2 -6 -8 -6
-24 -8 -35 -6 -11 3 -14 2 -7 -1 6 -3 9 -11 6 -16 -4 -6 -3 -8 3 -5 5 3 10 0
10 -8 0 -9 -7 -14 -16 -13 -10 2 -16 -5 -17 -19 -1 -21 7 -28 29 -24 5 1 5 -3
2 -9 -4 -6 -13 -9 -19 -7 -7 3 -13 -1 -13 -8 0 -7 8 -12 19 -10 10 2 16 0 12
-6 -3 -5 -2 -15 4 -22 5 -7 8 -24 7 -38 -1 -20 2 -25 15 -22 10 3 27 -8 43
-27 15 -17 36 -32 47 -33 11 -1 20 -5 20 -10 0 -5 8 -3 17 4 15 12 16 12 10
-3 -8 -22 11 -34 26 -19 9 9 8 11 -3 8 -8 -2 -12 -2 -7 0 4 3 5 10 1 16 -3 7
3 2 14 -10 25 -29 32 -29 27 -2 -3 15 -1 18 8 12 15 -12 124 -10 134 2 4 4 3
5 -4 1 -6 -3 -15 -1 -19 6 -4 7 -4 10 1 6 4 -4 15 -2 23 5 10 8 13 8 9 1 -4
-7 0 -14 8 -17 10 -4 12 -1 9 11 -5 14 -4 15 5 2 12 -18 27 -6 15 13 -5 7 -2
5 8 -5 12 -13 18 -15 21 -6 3 7 4 0 2 -16 -1 -16 -11 -36 -21 -44 -18 -14 -18
-14 0 -8 14 5 17 3 11 -11 -4 -10 -8 -23 -8 -29 0 -13 -22 -12 -34 1 -5 4 -1
5 7 0 8 -5 12 -4 7 0 -4 5 -14 10 -22 11 -12 2 -12 -2 -5 -17 6 -10 8 -19 5
-19 -11 0 -34 27 -29 33 3 3 -2 4 -12 3 -10 -2 -21 -11 -25 -22 -6 -14 -8 -15
-9 -4 -2 8 -2 20 -1 27 2 17 -16 25 -25 12 -4 -8 -3 -9 4 -5 16 10 15 -7 0
-23 -11 -11 -10 -12 2 -6 8 5 12 4 7 0 -4 -5 -17 -10 -29 -12 -16 -3 -18 0
-10 10 9 10 8 14 -3 14 -7 0 -13 -5 -12 -11 1 -6 -8 -12 -20 -14 -13 -2 -23
-8 -23 -13 0 -6 5 -7 12 -3 7 4 8 3 4 -5 -6 -9 -11 -9 -21 -1 -9 8 -15 3 -25
-20 -7 -18 -17 -27 -24 -23 -6 4 -5 -1 3 -10 11 -14 11 -20 0 -34 -13 -16 -12
-17 4 -4 15 12 17 11 17 -2 0 -9 9 -19 20 -22 11 -3 20 -11 20 -18 0 -8 -3 -8
-12 1 -7 7 -16 12 -22 12 -5 0 -1 -6 9 -14 11 -8 23 -12 28 -9 4 2 16 -6 26
-18 14 -17 20 -19 26 -9 6 9 4 11 -5 5 -8 -5 -11 -4 -6 3 8 13 47 7 57 -9 4
-8 9 -5 13 9 7 22 32 23 48 1 8 -11 9 -10 4 5 -5 15 -2 17 14 13 20 -5 24 12
5 25 -6 5 -6 8 2 8 6 0 15 -5 18 -10 11 -18 22 -1 18 27 -4 23 -2 25 7 13 9
-12 10 -9 6 15 -5 23 -4 26 4 13 12 -20 35 -14 45 10 5 14 4 14 -13 -1 -16
-14 -19 -15 -19 -2 0 8 3 13 5 10 3 -3 11 0 19 7 11 8 17 7 28 -8 14 -18 14
-18 10 3 -2 13 1 26 7 29 7 4 8 2 4 -4 -4 -7 -2 -12 4 -12 6 0 9 -4 6 -8 -3
-5 2 -9 10 -9 9 0 13 6 10 14 -5 11 -1 11 16 -1 16 -11 25 -13 35 -4 9 7 13 7
13 -1 0 -6 5 -11 11 -11 5 0 8 4 5 9 -4 5 3 7 14 4 11 -3 17 -10 13 -17 -4 -6
0 -6 9 2 8 7 24 9 33 5 11 -4 16 -2 12 3 -3 5 3 10 13 10 10 0 17 -3 14 -7 -2
-4 3 -10 12 -13 8 -3 12 -2 9 4 -3 6 -1 10 4 10 6 0 11 -9 11 -20 0 -22 15
-27 26 -8 5 7 2 8 -7 3 -8 -5 -11 -4 -6 0 4 5 17 10 30 12 17 3 19 1 9 -9 -6
-6 -12 -17 -12 -23 0 -5 4 -4 9 4 5 8 17 16 26 17 9 1 20 6 23 10 4 4 0 5 -9
2 -9 -4 -16 -1 -16 6 0 8 10 11 25 8 16 -3 23 -1 18 6 -3 6 4 18 16 26 13 10
17 16 9 16 -8 0 -11 3 -8 6 3 4 1 16 -5 28 -10 18 -9 19 4 9 15 -13 28 -8 28
11 0 6 -5 4 -11 -4 -7 -11 -9 -7 -5 18 2 19 8 37 12 40 4 4 4 -1 1 -10 -3 -9
1 -22 9 -29 12 -10 13 -9 8 6 -6 14 -4 16 7 10 11 -7 11 -5 -1 10 -12 15 -12
17 -1 10 11 -6 13 -4 8 8 -5 14 -2 15 19 7 35 -14 41 -12 18 4 -13 10 -14 14
-4 13 8 -2 21 -6 28 -10 8 -6 15 0 21 15 9 21 17 9 11 -17 -1 -5 2 -6 7 -2 4
5 8 14 8 20 0 7 8 11 18 11 9 -1 17 2 17 7 0 5 6 6 14 3 9 -4 26 10 46 37 30
41 34 67 11 62 -16 -4 -14 2 6 18 9 8 14 9 10 3 -3 -6 0 -11 7 -11 15 0 15 21
1 34 -4 4 -5 2 -1 -4 5 -9 2 -11 -9 -6 -9 3 -13 9 -8 12 9 6 15 27 16 50 0 7
13 18 29 23 15 6 28 14 28 20 0 5 -6 6 -12 2 -7 -4 -9 -3 -5 1 7 9 12 10 48
18 26 5 51 34 36 41 -6 4 -3 5 8 3 15 -3 21 2 23 17 1 14 -1 17 -7 8 -7 -11
-10 -10 -14 3 -4 9 -3 13 3 10 6 -3 10 -2 10 4 0 6 8 8 18 5 14 -5 15 -4 2 5
-13 10 -13 12 0 21 12 7 12 12 3 21 -10 10 -9 15 5 26 14 11 15 12 1 7 -22 -7
-31 29 -13 55 13 17 12 21 -3 31 -16 10 -15 10 5 5 26 -7 28 -2 6 19 -13 14
-13 16 -1 16 9 0 17 -6 20 -12 3 -7 4 -3 4 10 -1 13 -6 21 -14 18 -8 -3 -10 1
-6 11 5 12 3 14 -8 8 -12 -8 -12 -6 0 9 13 15 13 19 0 27 -8 5 -9 9 -4 9 6 0
16 14 22 31 7 17 17 28 22 24 7 -4 8 0 4 11 -5 13 -3 15 8 10 8 -4 5 0 -6 10
-20 16 -20 16 2 11 20 -4 21 -3 12 14 -5 11 -6 19 -2 18 19 -3 23 2 13 21 -8
14 -8 26 0 40 9 16 8 19 -6 13 -11 -4 -15 -3 -10 5 3 6 1 14 -5 18 -7 4 -9 3
-5 -4 3 -6 2 -13 -4 -17 -6 -3 -10 3 -10 15 0 19 -2 20 -15 6 -9 -8 -22 -13
-29 -10 -8 3 -17 0 -21 -6 -5 -8 -11 -8 -21 1 -11 9 -14 8 -14 -2 0 -11 -2
-11 -10 1 -8 13 -10 13 -10 -2 0 -9 -4 -19 -9 -22 -5 -4 -7 3 -4 14 3 12 0 20
-6 20 -7 0 -10 -4 -7 -8 2 -4 -4 -8 -14 -9 -18 -2 -18 -1 -2 16 12 12 21 15
30 8 8 -6 12 -6 12 2 0 6 -5 11 -11 11 -8 0 -7 6 2 18 7 9 -1 4 -19 -12 -29
-27 -47 -25 -20 2 7 7 8 12 2 12 -6 0 -15 -5 -20 -10 -7 -7 -11 -6 -11 4 0 8
4 13 9 10 4 -3 8 -1 8 4 0 6 7 9 16 8 9 0 18 7 19 17 2 9 -1 15 -6 11 -5 -3
-7 -9 -4 -14 2 -4 -8 -7 -25 -6 -26 1 -27 2 -14 17 8 8 11 19 7 24 -5 4 -2 5
5 1 7 -4 9 -12 6 -18 -4 -7 -2 -8 4 -4 9 5 7 16 -5 39 -15 31 -15 31 2 17 17
-14 17 -14 7 7 -16 30 -15 32 11 27 20 -4 20 -4 2 5 -11 4 -23 7 -27 5 -4 -3
-9 0 -13 6 -3 5 1 10 9 10 8 0 18 5 22 12 5 7 3 8 -6 3 -10 -6 -12 -3 -7 11 7
18 7 18 -7 0 -15 -18 -15 -18 -15 0 -1 41 -5 53 -17 58 -9 3 -11 -1 -7 -12 4
-13 2 -13 -10 3 -8 10 -12 26 -9 35 5 13 3 13 -11 1 -14 -11 -18 -11 -23 3 -3
9 -11 13 -18 9 -7 -4 -6 -1 2 9 10 13 9 15 -14 10 -21 -4 -25 -2 -19 9 7 11 5
11 -10 -1 -15 -12 -17 -12 -10 -1 6 11 2 13 -19 7 -18 -4 -25 -3 -21 4 7 11 6
11 -13 3z m-948 -71 c3 -5 -1 -9 -9 -9 -8 0 -12 4 -9 9 3 4 7 8 9 8 2 0 6 -4
9 -8z m-87 -67 c0 -8 -4 -12 -9 -9 -5 3 -6 10 -3 15 9 13 12 11 12 -6z m443
-89 c0 -2 -7 -9 -15 -16 -13 -11 -14 -10 -9 4 5 14 24 23 24 12z m485 -6 c3
-5 1 -10 -4 -10 -6 0 -11 5 -11 10 0 6 2 10 4 10 3 0 8 -4 11 -10z m-489 -35
c-8 -8 -18 -15 -22 -15 -3 0 -1 7 6 15 7 8 17 15 22 15 5 0 3 -7 -6 -15z m-29
-70 c0 -8 -4 -12 -9 -9 -5 3 -6 10 -3 15 9 13 12 11 12 -6z m518 -15 c3 -5 1
-10 -4 -10 -6 0 -11 5 -11 10 0 6 2 10 4 10 3 0 8 -4 11 -10z m-551 -102 c-3
-4 -1 -8 4 -8 6 0 13 -7 16 -15 5 -13 1 -12 -19 2 -28 21 -31 30 -10 30 8 0
12 -4 9 -9z m56 -43 c5 3 12 0 16 -6 4 -8 3 -9 -4 -5 -7 4 -12 2 -12 -3 0 -6
5 -11 10 -11 6 0 10 -6 10 -12 -1 -7 -10 -2 -20 11 -11 13 -20 28 -19 35 0 7
2 6 6 -2 2 -6 9 -10 13 -7z m998 -20 c-3 -3 -9 2 -12 12 -6 14 -5 15 5 6 7 -7
10 -15 7 -18z m-938 -140 c-7 -8 -17 -15 -23 -15 -6 0 -2 7 9 15 25 19 30 19
14 0z m-3 -80 c0 -6 -6 -12 -12 -12 -6 0 -12 6 -12 12 0 6 6 12 12 12 6 0 12
-6 12 -12z m907 -96 c-8 -14 -21 -11 -21 5 0 8 6 12 14 9 7 -3 10 -9 7 -14z
m-1284 -94 c-7 -9 -15 -13 -19 -10 -3 3 1 10 9 15 21 14 24 12 10 -5z m-85
-144 c-6 -5 -25 10 -25 20 0 5 6 4 14 -3 8 -7 12 -15 11 -17z m1188 -76 c-3
-9 -8 -14 -10 -11 -3 3 -2 9 2 15 9 16 15 13 8 -4z m-33 -50 c-7 -8 -17 -12
-23 -8 -6 4 -3 9 9 14 27 11 28 11 14 -6z m-110 -40 c0 -8 -2 -15 -4 -15 -2 0
-6 7 -10 15 -3 8 -1 15 4 15 6 0 10 -7 10 -15z m-584 -48 c0 -13 -6 -24 -13
-24 -6 0 -9 5 -5 11 4 6 7 14 8 19 5 26 10 23 10 -6z m4 -41 c0 -2 -7 -9 -15
-16 -13 -11 -14 -10 -9 4 5 14 24 23 24 12z m-127 -41 c4 -8 3 -16 -1 -19 -4
-3 -9 4 -9 15 -2 23 3 25 10 4z m572 -13 c-2 -9 -4 -18 -4 -20 -1 -2 -6 0 -11
3 -8 5 -8 11 -1 19 6 7 7 17 3 21 -4 5 -2 5 5 2 6 -4 10 -15 8 -25z m-731 -83
c-3 -5 -10 -7 -15 -3 -5 3 -7 10 -3 15 3 5 10 7 15 3 5 -3 7 -10 3 -15z"/>
<path d="M2955 6770 c3 -5 8 -10 11 -10 2 0 4 5 4 10 0 6 -5 10 -11 10 -5 0
-7 -4 -4 -10z"/>
<path d="M7758 6760 c-2 -7 -17 -13 -33 -15 -17 -1 -34 -4 -40 -5 -19 -5 -36
0 -31 8 3 5 -2 9 -10 9 -9 0 -13 -6 -9 -16 3 -8 3 -12 -1 -8 -4 4 -14 1 -23
-6 -14 -10 -14 -10 -4 3 10 13 8 16 -8 16 -10 0 -19 -4 -19 -9 0 -4 -5 -5 -12
-1 -8 5 -9 1 -5 -12 6 -17 5 -17 -5 -3 -13 15 -61 22 -52 7 11 -18 -7 -27 -33
-17 -22 8 -24 7 -14 -5 9 -11 9 -16 0 -22 -7 -4 -9 -3 -5 4 4 6 -1 10 -13 9
-11 0 -17 -5 -14 -10 3 -4 -3 -7 -13 -5 -15 2 -19 -3 -19 -23 1 -20 -3 -25
-17 -21 -10 2 -20 -2 -24 -12 -3 -9 -10 -13 -15 -11 -4 3 -19 -10 -31 -29 -23
-36 -40 -47 -36 -24 2 7 10 19 18 26 13 11 12 11 -7 3 -27 -14 -24 -46 6 -47
15 -1 20 3 17 13 -3 8 -2 12 3 9 5 -3 15 2 22 11 12 14 12 16 0 9 -9 -6 -12
-4 -9 5 3 8 10 14 17 14 6 0 16 7 21 15 5 8 10 11 10 5 -1 -5 -7 -19 -15 -29
-8 -10 -12 -23 -8 -29 3 -6 1 -7 -4 -4 -10 7 -28 -20 -25 -36 1 -4 -4 -6 -10
-5 -8 2 -12 -6 -11 -22 3 -24 3 -25 -7 -3 -6 16 -15 21 -27 17 -15 -5 -16 -4
-3 5 12 8 12 13 3 19 -13 8 -11 41 3 65 6 9 4 9 -8 -1 -13 -10 -18 -10 -24 -1
-4 7 -3 9 3 6 15 -9 21 12 13 43 -6 24 -6 25 -12 3 -3 -12 -2 -24 3 -27 5 -2
4 -3 -3 -2 -8 2 -12 13 -10 27 4 24 3 24 -13 4 -16 -20 -16 -20 -6 2 6 12 15
23 20 25 5 1 2 10 -7 18 -14 13 -15 12 -9 -3 4 -11 1 -17 -8 -17 -9 0 -12 8
-10 21 3 15 1 18 -8 11 -14 -12 -52 10 -40 22 4 4 0 4 -10 0 -9 -3 -14 -11
-10 -17 3 -6 1 -7 -5 -3 -7 4 -12 15 -13 24 0 14 -2 13 -9 -3 -5 -11 -9 -14
-9 -7 -1 8 -6 10 -13 6 -20 -12 -48 -12 -41 0 3 6 -5 0 -18 -14 -13 -13 -23
-28 -21 -33 1 -5 -2 -5 -8 -2 -6 4 -19 1 -29 -7 -9 -7 -2 1 16 17 18 17 33 34
33 39 0 6 -7 1 -15 -10 -8 -10 -15 -15 -15 -11 0 4 -11 -4 -24 -20 -13 -15
-21 -32 -18 -38 11 -17 11 -35 1 -35 -6 0 -7 -6 -3 -12 5 -9 2 -9 -9 1 -18 14
-23 26 -8 17 5 -3 11 1 15 9 3 8 0 14 -7 12 -22 -4 -26 -22 -11 -46 9 -13 11
-21 6 -17 -6 3 -13 2 -17 -3 -3 -5 -14 -8 -25 -6 -11 2 -22 0 -25 -5 -3 -5 3
-7 14 -5 10 2 27 -3 38 -11 17 -14 16 -14 -5 -4 -19 9 -23 8 -30 -10 -8 -21
-8 -21 -20 4 -8 18 -17 24 -29 20 -15 -5 -16 -4 -3 5 13 9 8 15 -11 13 -4 -1
-5 7 -2 17 3 10 0 22 -6 25 -6 4 -11 0 -11 -10 0 -27 -8 -12 -15 26 -6 33 -40
74 -55 65 -4 -3 -14 3 -21 13 -13 15 -12 16 3 4 12 -10 18 -10 24 -1 4 7 3 9
-4 5 -6 -3 -14 -2 -17 4 -5 8 -12 7 -23 -2 -12 -10 -14 -10 -8 0 4 6 2 12 -3
12 -6 0 -11 -5 -11 -11 0 -5 -5 -7 -10 -4 -6 4 -8 10 -6 14 3 4 -8 7 -24 6
-16 0 -28 -4 -27 -9 1 -5 -4 -11 -12 -14 -10 -3 -12 0 -8 14 7 18 6 18 -8 0
-11 -14 -15 -16 -15 -5 -1 8 -7 3 -16 -11 -8 -14 -13 -17 -10 -8 3 12 1 15
-10 11 -8 -3 -14 1 -14 8 0 9 -4 8 -11 -4 -10 -17 -13 -17 -34 -3 -15 10 -26
12 -30 6 -3 -6 -11 -10 -16 -10 -6 0 -7 5 -4 10 11 17 -7 11 -21 -7 -13 -17
-14 -17 -8 0 7 20 -6 22 -25 5 -11 -10 -13 -10 -7 0 4 7 1 12 -8 12 -9 0 -16
-5 -16 -11 0 -5 -5 -7 -12 -3 -7 5 -5 11 7 21 11 7 14 13 8 13 -7 0 -15 -4
-18 -10 -3 -5 -15 -10 -26 -10 -14 0 -18 4 -13 13 6 9 4 9 -7 1 -8 -6 -24 -10
-36 -9 -15 1 -23 -4 -24 -14 0 -12 -3 -11 -9 4 -5 11 -9 14 -9 7 -1 -7 -6 -10
-11 -7 -6 4 -17 2 -25 -5 -10 -8 -15 -8 -21 1 -5 8 -3 9 6 4 9 -5 11 -4 6 4
-4 6 -11 9 -15 7 -18 -11 -61 -14 -67 -4 -5 7 -2 8 6 3 9 -5 11 -4 6 4 -5 7
-12 9 -19 3 -7 -5 -24 -8 -39 -7 -15 1 -25 -1 -23 -6 3 -4 -2 -9 -10 -13 -8
-3 -17 0 -21 6 -4 7 -3 8 4 4 7 -4 12 -2 12 4 0 7 -7 9 -16 6 -9 -3 -25 -6
-35 -6 -14 0 -18 -4 -13 -12 5 -8 0 -7 -11 2 -11 9 -16 10 -11 3 4 -8 1 -13
-9 -13 -10 0 -13 -5 -9 -12 6 -10 4 -10 -8 0 -13 10 -18 10 -24 1 -4 -8 -3 -9
4 -5 7 4 12 2 12 -3 0 -11 -15 -15 -35 -11 -5 1 -7 -2 -3 -5 4 -4 2 -17 -4
-29 -17 -30 -18 -43 -3 -43 7 0 12 8 10 16 -4 20 21 56 29 43 3 -6 0 -12 -8
-15 -8 -3 -13 -17 -11 -35 2 -25 -1 -28 -20 -24 -17 3 -25 -2 -29 -16 -10 -29
-32 -45 -66 -46 -15 -1 -32 -5 -37 -10 -5 -5 -2 -6 6 -1 10 6 12 4 6 -5 -6 -9
-4 -11 5 -5 9 6 11 4 5 -5 -6 -9 -4 -11 5 -5 9 6 11 4 5 -5 -6 -9 -4 -11 6 -5
11 7 11 5 -1 -10 -12 -15 -12 -17 -1 -10 10 6 12 4 6 -5 -5 -9 -4 -11 3 -6 8
5 10 1 6 -11 -5 -15 -4 -16 5 -3 9 13 11 13 12 0 1 -8 1 -18 1 -21 -1 -3 6 -6
14 -6 7 0 14 4 14 9 0 4 -4 8 -10 8 -5 0 -10 5 -10 10 0 6 6 9 13 8 6 -2 11 3
9 10 -1 6 2 12 6 12 5 0 9 7 9 16 0 10 -7 7 -24 -12 -12 -15 -23 -25 -24 -23
0 2 -2 12 -4 22 -2 10 -11 24 -21 32 -16 11 -15 13 8 13 17 0 25 -5 22 -13 -3
-7 -1 -16 5 -20 7 -4 8 0 5 10 -4 9 -3 15 2 14 20 -3 35 2 30 10 -3 5 1 14 9
21 8 7 15 17 15 23 0 6 -7 1 -16 -11 -21 -31 -38 -28 -18 3 20 31 39 28 39 -7
1 -19 -3 -24 -15 -20 -12 4 -13 3 -4 -9 5 -8 10 -21 9 -29 0 -8 4 -19 10 -23
6 -5 2 -6 -9 -3 -14 5 -17 2 -12 -9 3 -9 2 -13 -4 -10 -6 3 -10 -1 -10 -10 0
-10 4 -13 13 -8 6 4 4 -5 -5 -20 -10 -14 -18 -29 -18 -33 0 -3 8 0 18 7 15 12
16 12 5 -2 -7 -9 -9 -20 -5 -24 4 -5 1 -4 -7 0 -11 6 -13 4 -8 -7 6 -17 -16
-19 -30 -3 -4 4 -2 5 5 1 6 -4 12 -3 12 2 0 17 -13 22 -29 9 -14 -10 -14 -10
-3 5 11 14 10 17 -5 21 -17 4 -17 5 0 6 9 0 17 6 17 12 0 5 -5 7 -12 3 -7 -4
-8 -3 -4 4 4 7 2 12 -3 12 -6 0 -11 7 -11 15 0 8 -5 15 -11 15 -6 0 -9 6 -6
14 6 15 -27 48 -39 38 -4 -4 1 7 12 23 l18 30 -22 -19 c-22 -19 -22 -19 -16
-1 5 12 4 16 -4 11 -6 -3 -14 -1 -18 5 -4 8 -3 9 4 5 7 -4 12 -2 12 3 0 6 -3
11 -7 11 -5 0 -23 13 -41 28 -25 22 -30 30 -20 40 7 7 8 12 2 12 -6 0 -16 -6
-23 -12 -10 -11 -11 -9 -5 6 6 15 4 17 -7 11 -12 -8 -12 -6 -1 8 12 14 11 16
-5 13 -21 -4 -75 38 -65 50 4 5 0 4 -8 -2 -8 -6 -21 -9 -27 -8 -7 1 -18 2 -24
3 -5 0 -7 5 -4 11 3 6 -1 7 -9 4 -9 -3 -16 -11 -16 -18 -1 -6 -7 0 -14 13 -11
20 -14 21 -19 7 -5 -12 -3 -15 6 -10 7 4 9 3 4 -2 -5 -5 -10 -7 -11 -4 -2 3
-11 -2 -21 -10 -17 -14 -17 -14 -7 7 8 15 9 24 2 28 -6 4 -9 3 -8 -2 2 -4 -6
-19 -16 -33 -14 -19 -17 -20 -12 -5 4 11 4 16 0 12 -4 -4 -14 -1 -22 6 -13 10
-14 9 -7 -3 18 -29 14 -45 -5 -20 -19 24 -19 25 -15 2 2 -12 7 -27 10 -32 3
-6 4 -10 1 -10 -3 0 -12 12 -20 28 -8 15 -15 22 -16 15 0 -6 -6 -13 -12 -16
-7 -2 -6 -3 3 -2 10 2 16 -4 15 -11 -2 -14 -6 -16 -23 -13 -25 5 -49 3 -54 -5
-8 -10 -29 1 -29 15 0 5 5 9 11 9 5 0 7 -5 3 -12 -4 -7 -3 -8 4 -4 15 9 15 26
1 26 -15 0 -69 -52 -63 -62 3 -4 -2 -5 -11 -2 -14 6 -14 8 2 21 17 13 17 14
-4 8 -12 -3 -24 -1 -28 4 -3 6 0 9 7 8 7 -2 9 -2 5 1 -4 2 -3 10 3 17 8 9 8
15 0 20 -6 4 -9 1 -8 -6 2 -7 -1 -13 -7 -14 -5 0 -16 -4 -23 -9 -7 -4 -19 -3
-27 4 -10 8 -15 8 -21 -1 -5 -8 -3 -9 6 -4 9 6 11 4 5 -5 -5 -8 -4 -11 1 -7 5
3 10 -2 10 -12 0 -10 -6 -18 -14 -18 -7 0 -11 6 -8 14 6 15 -27 36 -39 25 -5
-4 -5 1 -2 10 7 21 -10 33 -42 29 -13 -1 -21 1 -18 6 4 6 0 10 -8 10 -8 0 -12
-3 -10 -7 2 -4 -2 -7 -10 -7 -8 0 -11 5 -8 10 4 6 0 8 -10 4 -10 -3 -17 -3
-17 2 0 5 -23 7 -50 5 -28 -1 -48 1 -45 6 8 13 -21 6 -39 -9 -14 -12 -16 -12
-11 0 4 10 -2 15 -15 16 -11 1 -20 -3 -20 -8 0 -6 5 -7 12 -3 6 4 8 3 5 -4 -8
-12 -49 -4 -59 12 -5 8 -8 7 -8 -1 0 -7 -5 -13 -11 -13 -5 0 -7 6 -3 13 6 9 5
9 -7 0 -9 -7 -20 -9 -29 -3 -9 5 -19 5 -27 -2 -10 -8 -21 -8 -41 1 -24 10 -25
10 -9 -3 10 -8 14 -17 8 -20 -5 -3 -11 0 -14 6 -3 10 -9 10 -27 0 -12 -8 -19
-9 -16 -4 3 5 -9 9 -28 8 -19 0 -32 -5 -28 -10 3 -5 -3 -6 -14 -2 -10 4 -15 4
-11 0 4 -4 2 -13 -5 -21 -6 -7 -8 -16 -5 -20 4 -3 -1 -12 -11 -19 -14 -10 -15
-15 -4 -25 6 -7 12 -18 12 -23 0 -6 -4 -5 -9 2 -6 10 -10 8 -14 -8 -3 -13 0
-23 9 -27 8 -3 14 -9 14 -15 0 -5 -6 -6 -12 -2 -7 4 -4 -3 7 -16 l20 -24 -30
19 c-30 18 -30 18 -15 -1 8 -10 20 -22 25 -26 6 -5 5 -8 -2 -8 -7 0 -13 -4
-13 -10 0 -5 3 -9 8 -7 4 1 8 -2 10 -8 1 -5 -2 -10 -7 -10 -5 0 -13 -4 -18 -8
-4 -5 -3 -8 2 -7 21 5 29 -1 15 -10 -10 -6 -11 -10 -2 -10 6 0 12 -11 12 -25
0 -14 -4 -25 -10 -25 -5 0 -7 6 -4 14 3 8 1 16 -4 20 -5 3 -8 -5 -7 -16 1 -12
7 -24 13 -26 16 -5 15 -22 0 -18 -7 1 -10 1 -5 -1 4 -3 4 -10 1 -15 -4 -7 -2
-8 4 -4 14 9 16 -6 2 -20 -12 -12 -1 -56 13 -47 6 4 7 1 3 -6 -5 -7 -15 -10
-25 -7 -12 5 -11 2 3 -9 14 -11 16 -15 5 -15 -12 0 -12 -2 0 -9 8 -5 11 -16 8
-24 -3 -8 0 -20 6 -27 9 -10 6 -9 -13 0 -22 12 -23 11 -13 -2 7 -8 9 -19 5
-23 -4 -5 -2 -5 5 -1 6 3 15 1 19 -5 4 -7 3 -9 -4 -5 -11 6 -25 -9 -28 -31 -1
-6 5 -9 14 -6 12 3 10 -2 -6 -15 -22 -20 -22 -21 -2 -27 22 -7 26 -20 8 -31
-7 -5 -8 -3 -3 7 8 12 6 12 -8 0 -17 -14 -24 -26 -9 -17 4 2 14 1 22 -5 12 -7
11 -9 -5 -10 -11 0 -14 -3 -7 -6 10 -4 10 -8 1 -19 -7 -8 -9 -17 -5 -21 3 -3
6 -1 6 5 0 7 4 12 10 12 5 0 7 -7 4 -15 -5 -12 -2 -14 12 -8 17 6 17 5 5 -10
-9 -11 -10 -17 -2 -17 6 0 11 -8 11 -19 0 -10 8 -25 18 -32 15 -13 16 -12 4 2
-10 14 -10 18 1 22 11 4 13 -2 11 -23 -3 -25 0 -28 18 -25 20 4 20 4 2 -16
-11 -12 -18 -23 -16 -25 6 -10 1 -24 -9 -24 -6 0 -7 5 -2 13 11 18 13 38 2 31
-5 -3 -7 -10 -4 -15 4 -5 -1 -12 -10 -15 -13 -5 -14 -9 -4 -15 7 -4 14 -16 15
-26 3 -17 2 -17 -12 1 -16 23 -19 14 -4 -15 8 -14 8 -19 -2 -17 -15 4 -18 -22
-4 -42 10 -13 9 -13 -7 -1 -22 17 -34 7 -17 -14 11 -13 10 -14 -3 -10 -18 8
-32 -11 -16 -21 8 -5 9 -3 4 6 -6 9 -4 11 5 5 10 -6 9 -11 -5 -22 -11 -7 -13
-13 -7 -13 7 0 12 -5 12 -11 0 -6 -6 -9 -13 -6 -9 3 -13 -4 -12 -23 0 -16 3
-26 6 -24 4 2 10 -3 13 -12 3 -9 11 -12 18 -8 10 5 10 4 0 -7 -11 -12 -14 -12
-22 1 -5 8 -10 11 -10 5 0 -18 17 -38 27 -32 6 4 9 -8 7 -30 -1 -21 1 -32 5
-24 6 10 10 9 15 -4 5 -14 9 -15 20 -6 11 9 14 9 12 -1 -1 -7 -5 -19 -10 -27
-6 -9 0 -8 17 4 19 12 27 13 33 4 5 -8 3 -10 -7 -4 -11 6 -12 5 -2 -5 10 -10
15 -11 27 -1 10 9 16 9 21 1 5 -8 12 -7 23 2 16 12 16 11 2 -6 -13 -17 -13
-19 0 -14 8 3 21 -2 28 -11 11 -15 12 -14 6 0 -3 10 0 20 6 24 6 3 9 1 8 -6
-2 -6 3 -14 11 -17 8 -2 11 0 7 6 -3 6 -2 13 4 17 5 3 11 1 11 -4 1 -6 2 -15
3 -20 0 -5 5 -13 10 -18 5 -4 6 -3 3 3 -4 7 0 17 8 24 10 9 15 9 15 1 0 -6 5
-11 11 -11 5 0 7 6 3 13 -5 7 0 6 11 -3 17 -14 18 -13 12 4 -6 15 -5 17 6 8 8
-7 17 -9 20 -5 4 3 7 0 7 -7 0 -7 3 -10 7 -7 3 4 12 2 20 -5 11 -8 12 -7 7 6
-3 9 -1 16 5 16 6 0 11 -5 11 -11 0 -7 14 -10 38 -7 26 3 41 0 50 -11 12 -15
13 -15 9 0 -5 14 1 16 30 12 28 -4 34 -2 27 9 -4 7 2 5 13 -5 23 -20 39 -11
20 12 -10 14 -10 14 5 3 9 -8 14 -20 11 -28 -3 -8 0 -14 6 -14 6 0 11 6 11 13
0 15 35 16 47 2 5 -4 1 -5 -7 0 -8 5 -12 4 -7 0 13 -14 36 -14 31 0 -3 7 0 16
7 21 8 4 10 3 5 -5 -5 -8 0 -10 18 -7 18 3 23 1 20 -9 -4 -9 1 -12 13 -11 10
2 24 -2 32 -8 12 -9 12 -8 3 11 -11 20 -10 21 10 18 12 -3 25 -10 29 -16 5 -8
8 -8 11 1 2 7 17 14 33 15 17 2 31 4 33 5 15 14 56 -6 45 -23 -3 -6 -1 -7 6
-3 6 4 9 11 7 15 -3 4 7 7 22 6 15 -1 33 3 41 9 8 6 12 7 9 1 -3 -5 0 -16 8
-23 8 -7 14 -9 14 -4 0 18 50 20 60 3 8 -14 9 -14 10 2 0 9 4 17 10 17 5 0 7
-8 3 -17 -6 -16 -3 -15 17 2 13 11 20 15 17 9 -11 -19 24 -26 44 -9 16 15 18
15 28 -2 7 -11 11 -13 11 -4 0 8 6 11 16 7 15 -6 15 -4 3 10 -13 16 -12 16 8
4 18 -12 20 -17 10 -30 -7 -9 -3 -7 10 4 17 14 34 17 77 14 30 -2 53 -1 50 4
-3 5 -9 6 -14 3 -5 -3 -11 -2 -14 3 -2 4 14 7 36 7 31 -1 43 -6 49 -20 4 -11
8 -14 8 -7 1 7 -4 23 -10 35 -9 18 -9 20 1 10 7 -6 20 -9 29 -6 14 4 14 3 1
-6 -8 -6 -10 -11 -4 -11 5 0 15 5 22 12 7 7 12 8 12 3 0 -4 10 0 22 11 19 15
20 16 9 2 -10 -13 -10 -18 -2 -18 7 0 10 -4 7 -8 -2 -4 4 -8 14 -8 14 0 16 3
8 13 -8 10 -7 12 6 7 9 -3 16 -10 16 -15 0 -4 7 -5 17 -2 11 5 14 3 8 -6 -6
-10 -3 -11 13 -2 14 7 23 8 27 1 4 -6 11 -7 17 -4 6 4 17 -1 24 -10 11 -16 13
-16 19 5 7 20 8 20 17 6 5 -10 14 -17 19 -17 6 0 8 4 4 9 -3 5 0 13 6 17 8 5
9 3 4 -5 -5 -9 1 -11 25 -8 24 4 30 2 26 -9 -3 -8 -1 -14 4 -14 6 0 10 8 10
17 0 15 2 14 14 -3 13 -17 15 -17 21 -2 4 9 15 16 25 15 10 -1 16 -5 13 -10
-3 -5 6 -2 20 8 19 12 27 13 33 4 4 -7 3 -9 -4 -5 -6 3 -14 1 -18 -5 -4 -7 -3
-9 4 -5 5 3 13 0 15 -6 4 -10 6 -10 6 0 1 7 5 10 11 7 5 -3 7 0 4 9 -4 12 1
13 30 6 24 -5 41 -4 53 5 13 9 22 10 30 3 7 -6 13 -7 13 -3 0 5 9 0 20 -10 14
-13 19 -14 15 -4 -4 11 3 14 27 12 50 -2 50 -2 44 -12 -7 -10 20 -9 30 2 12
11 26 8 18 -4 -4 -7 -1 -10 7 -7 8 3 22 1 31 -4 14 -6 16 -5 12 7 -4 8 -1 15
5 15 6 0 11 -6 11 -12 0 -9 4 -8 10 2 6 10 10 11 10 3 0 -7 5 -13 11 -13 5 0
8 4 5 8 -3 5 1 9 9 9 8 0 12 -4 9 -9 -7 -11 3 -10 26 2 13 7 21 7 25 0 3 -5
11 -10 17 -10 6 0 6 6 -2 15 -11 13 -10 14 4 9 9 -3 16 -9 16 -13 0 -3 9 -12
20 -19 11 -7 20 -9 19 -5 -3 20 2 34 11 28 6 -3 10 0 10 7 0 10 2 10 9 -1 5
-8 16 -11 26 -7 13 5 16 2 11 -11 -5 -15 -4 -15 9 1 8 11 15 14 15 7 0 -7 5
-9 10 -6 6 4 7 11 4 17 -4 6 1 6 14 -1 11 -6 28 -8 38 -4 14 5 16 3 11 -13 -7
-18 -6 -18 7 -1 13 17 32 25 22 9 -8 -13 27 -11 43 2 10 8 18 5 31 -12 15 -18
19 -19 24 -6 4 10 2 13 -7 8 -9 -5 -8 -3 1 7 11 12 14 12 21 0 5 -8 16 -11 26
-8 9 4 13 12 9 18 -4 8 -3 9 5 5 6 -4 9 -11 6 -16 -6 -10 16 -19 33 -13 6 3
12 9 12 15 0 6 -6 6 -15 -2 -9 -7 -15 -8 -15 -2 0 19 27 20 43 1 15 -17 53
-17 42 0 -2 4 6 7 18 6 12 -1 25 3 29 9 5 7 8 4 8 -8 0 -11 -5 -16 -13 -13 -7
3 -21 -1 -32 -9 -10 -8 -14 -14 -8 -14 7 0 15 5 18 10 4 6 10 8 15 5 5 -3 20
1 33 9 12 9 33 14 45 11 13 -2 25 3 32 13 13 24 12 5 -2 -21 -10 -19 -9 -20 4
-10 8 7 19 9 23 5 5 -4 5 -1 1 6 -4 6 -2 12 3 12 6 0 11 -4 11 -10 0 -5 5 -10
11 -10 5 0 7 5 3 11 -4 7 -1 10 7 7 8 -3 13 -12 11 -19 -2 -9 3 -8 16 4 19 18
37 23 28 8 -3 -4 6 -13 20 -20 14 -6 23 -7 19 -2 -3 6 4 15 15 21 11 6 20 8
20 4 0 -3 6 -1 14 5 11 9 16 9 23 -1 4 -7 15 -19 24 -26 14 -10 20 -10 33 3 9
9 13 21 10 27 -4 6 1 6 13 -1 11 -6 23 -7 27 -4 3 3 6 1 6 -5 0 -7 5 -12 11
-12 5 0 8 4 5 8 -2 4 0 14 5 22 8 12 9 11 7 -4 -2 -10 3 -21 11 -24 10 -3 12
0 8 11 -4 11 -2 14 8 10 8 -3 13 -9 10 -13 -3 -4 2 -10 9 -13 16 -6 40 16 30
26 -4 4 4 4 16 2 13 -3 27 -10 32 -17 7 -12 12 -4 9 15 -1 5 3 6 9 2 6 -3 8
-10 6 -14 -3 -4 0 -13 5 -21 9 -13 10 -13 8 0 -3 27 1 40 11 40 5 0 7 -7 4
-15 -4 -8 -1 -15 4 -15 6 0 14 10 18 22 l6 21 15 -24 c12 -21 14 -21 10 -3 -3
17 1 20 29 22 28 2 33 0 28 -15 -5 -17 -5 -17 6 0 6 9 8 22 4 29 -4 7 -3 8 5
4 6 -4 14 0 17 9 6 14 8 14 19 -2 7 -10 11 -22 8 -26 -3 -5 6 -1 21 8 32 21
34 30 4 15 -22 -11 -22 -11 -3 5 20 16 42 15 38 -3 -3 -12 23 -10 34 3 4 4 3
5 -3 2 -7 -4 -14 -1 -17 7 -8 20 4 28 20 15 7 -6 13 -8 13 -3 0 5 5 2 10 -6 8
-12 10 -10 10 9 0 20 -2 21 -15 11 -9 -8 -15 -8 -15 -2 0 20 25 19 49 -2 13
-11 21 -15 16 -7 -5 9 -3 12 6 9 8 -3 13 -11 11 -17 -1 -7 2 -10 8 -6 6 4 4
14 -5 29 -13 20 -14 25 -1 35 11 9 16 9 22 0 4 -7 3 -9 -4 -5 -6 3 -13 2 -17
-4 -3 -5 1 -10 10 -10 10 0 13 -5 9 -12 -5 -7 -3 -8 5 -3 7 4 11 17 9 29 -3
16 1 22 13 22 10 0 16 -3 13 -7 -5 -9 24 -39 39 -39 6 0 2 7 -9 16 -15 12 -16
16 -5 21 8 3 25 15 37 27 12 12 27 22 34 24 15 3 41 -18 35 -28 -3 -4 2 -11
10 -14 13 -4 13 -2 5 14 -16 31 -11 37 10 11 11 -13 20 -19 20 -14 0 5 -5 14
-12 21 -16 16 4 16 22 0 12 -11 12 -10 2 4 -8 10 -9 19 -3 22 5 3 11 3 14 -1
2 -5 2 -3 1 4 -2 7 1 15 6 18 6 4 10 0 10 -7 1 -7 6 -3 13 8 7 12 20 20 30 19
9 -2 17 1 17 7 0 6 -7 7 -16 4 -12 -4 -14 -1 -9 13 3 11 0 23 -6 27 -8 4 -9 3
-5 -4 4 -7 2 -20 -4 -29 -9 -15 -10 -14 -4 6 4 15 2 21 -4 17 -6 -3 -18 4 -27
16 -8 13 -18 22 -21 20 -3 -2 -8 -1 -11 2 -3 3 4 3 17 1 16 -3 20 0 16 11 -3
9 -2 12 5 9 5 -4 7 -16 4 -28 -5 -20 -5 -20 7 -6 11 14 15 14 26 3 18 -20 31
-17 29 5 0 11 -5 17 -9 15 -5 -3 -5 -10 -2 -16 4 -7 2 -8 -4 -4 -6 4 -9 13 -5
22 3 8 2 14 -3 13 -31 -5 -34 3 -10 31 14 17 23 37 20 45 -7 18 12 20 22 3 4
-6 3 -8 -4 -4 -6 3 -9 -1 -8 -11 2 -10 -2 -22 -8 -26 -7 -6 -4 -7 7 -3 19 6
23 -9 5 -20 -6 -4 -14 -2 -16 4 -2 7 -8 10 -13 6 -16 -10 -10 -20 15 -22 16
-1 26 6 35 24 7 16 16 22 24 18 7 -4 7 -2 -2 7 -10 11 -15 11 -18 1 -3 -6 -9
-9 -15 -6 -5 4 0 16 13 30 12 13 17 24 11 24 -7 0 -12 -6 -12 -12 0 -9 -3 -9
-9 1 -5 8 -17 16 -26 17 -9 1 -19 4 -21 7 -8 8 71 2 84 -6 16 -11 15 1 -2 18
-10 11 -16 11 -26 2 -10 -9 -11 -9 -6 0 3 6 2 14 -4 18 -5 3 -10 1 -10 -4 0
-6 -4 -11 -8 -11 -5 0 -9 6 -9 14 0 15 14 16 35 3 6 -5 12 -4 12 0 0 5 -6 15
-12 22 -7 7 -8 12 -3 11 22 -5 36 1 30 11 -4 6 2 5 13 -2 12 -7 19 -16 16 -20
-2 -5 6 -13 18 -19 22 -11 22 -10 4 4 -11 9 -17 16 -14 16 4 0 3 13 -2 28 -6
21 -4 29 6 29 7 0 10 -5 7 -10 -3 -6 -1 -7 5 -3 7 4 12 2 12 -4 0 -6 5 -8 11
-5 6 5 4 12 -8 22 -14 11 -14 14 -2 10 9 -3 16 1 16 8 0 10 -5 11 -18 4 -23
-12 -29 -11 -29 1 0 5 3 9 8 9 19 -3 33 2 27 10 -3 5 0 13 6 17 7 4 9 3 6 -3
-4 -6 0 -14 9 -17 21 -8 24 -8 24 5 0 5 -4 7 -10 4 -5 -3 -10 1 -10 9 0 8 5
18 10 21 6 3 10 1 10 -6 0 -7 3 -9 6 -6 4 4 1 13 -6 22 -7 8 -9 15 -4 15 5 0
3 4 -5 9 -10 6 -10 13 -2 28 5 11 8 23 6 27 -3 3 -2 3 3 0 10 -8 9 -28 -3 -37
-6 -5 -5 -7 4 -5 8 2 16 19 17 36 1 18 -1 30 -5 28 -4 -3 -8 1 -8 9 0 8 4 12
9 9 4 -3 8 2 8 10 0 9 -6 16 -12 16 -9 0 -8 4 2 10 8 5 11 10 6 10 -5 0 -1 9
9 20 12 13 14 20 5 20 -8 0 -9 4 -3 13 6 6 11 19 11 27 4 49 9 65 21 62 7 -1
10 2 6 8 -3 5 -3 15 1 22 5 8 11 2 16 -17 4 -17 4 -31 -2 -33 -5 -2 -6 -10 -3
-18 3 -8 0 -14 -7 -14 -6 0 -8 5 -4 12 4 7 3 8 -4 4 -19 -12 -2 -37 22 -31 11
2 15 2 9 -1 -9 -4 -10 -11 -3 -24 13 -25 -14 -49 -28 -24 -6 11 -11 13 -16 5
-4 -6 -2 -11 4 -11 6 0 8 -5 5 -10 -4 -6 -1 -9 7 -8 7 2 12 -5 12 -14 -1 -10
2 -16 5 -13 4 2 8 -2 8 -10 0 -8 -4 -12 -8 -10 -13 9 -19 -26 -7 -48 10 -20 9
-21 -5 -9 -13 11 -15 10 -10 -8 3 -11 8 -18 11 -16 3 3 11 -2 18 -12 10 -14
10 -20 -3 -34 -11 -12 -20 -15 -28 -8 -8 7 -12 5 -12 -5 0 -8 5 -11 10 -8 6 4
8 0 4 -10 -3 -9 -2 -19 4 -22 5 -4 8 -1 7 6 -2 6 4 14 12 16 12 4 12 3 2 -5
-17 -11 -15 -22 4 -44 12 -12 12 -18 3 -24 -8 -4 -10 -3 -5 4 5 8 1 10 -9 5
-13 -4 -14 -8 -4 -14 7 -4 17 -5 21 -3 4 3 8 0 8 -7 0 -8 3 -9 14 0 10 9 16 8
26 -4 7 -8 17 -12 23 -8 5 3 7 1 3 -5 -3 -6 -2 -13 4 -17 5 -3 10 1 10 10 0 9
4 14 10 10 5 -3 7 -13 4 -23 -5 -14 -4 -15 5 -2 6 8 11 11 11 6 0 -6 5 -5 12
2 17 17 28 15 22 -5 -4 -12 -3 -14 3 -6 5 7 17 12 28 12 11 1 27 1 35 2 8 1
23 -2 33 -6 11 -5 17 -3 17 6 0 8 6 5 15 -7 13 -16 14 -16 9 -1 -5 13 -2 16 9
11 8 -3 18 -1 22 5 3 6 11 11 18 11 6 0 3 -6 -7 -13 -17 -13 -18 -14 -2 -20
10 -4 15 -3 11 3 -4 6 5 10 22 9 43 -3 55 0 48 11 -3 6 -1 10 4 10 6 0 11 -6
11 -12 0 -9 3 -9 9 1 5 8 18 12 30 8 12 -3 19 -1 15 5 -3 5 0 9 7 7 27 -3 40
1 33 12 -4 7 2 9 17 7 15 -2 23 2 21 10 -1 6 5 12 13 12 8 0 15 7 15 15 0 10
6 12 18 8 14 -6 15 -4 5 9 -14 17 -8 29 12 22 14 -6 47 34 39 48 -3 4 0 8 5 8
6 0 11 5 11 11 0 5 -6 7 -12 3 -9 -5 -9 -3 1 9 7 9 17 15 21 12 5 -3 12 0 16
6 4 7 3 9 -2 6 -6 -3 -16 -2 -24 4 -12 7 -12 9 3 9 15 0 16 3 6 23 -11 20 -11
21 4 8 20 -16 23 -1 5 18 -8 9 -8 11 -2 8 20 -11 24 19 6 44 -13 20 -14 22 -1
12 9 -7 19 -10 22 -7 3 4 -4 15 -16 24 -20 17 -20 19 -5 25 10 4 14 13 11 22
-5 12 -3 14 8 8 12 -8 12 -6 0 8 -15 19 -26 23 -15 5 5 -7 3 -8 -6 -3 -10 6
-10 11 4 20 15 11 15 13 1 19 -9 3 -13 2 -10 -4 3 -6 -1 -7 -10 -3 -9 3 -12 9
-7 12 5 3 10 18 10 34 0 21 -3 25 -13 17 -10 -8 -15 -8 -21 1 -5 8 -3 9 5 4 9
-5 12 -2 9 11 -2 11 -9 18 -15 17 -6 -1 -9 6 -5 19 4 16 2 19 -9 13 -12 -8
-12 -6 -1 8 12 14 11 16 -7 12 -12 -2 -20 1 -18 8 1 7 -4 11 -11 9 -8 -1 -11
2 -7 8 3 6 10 8 15 5 5 -3 12 0 16 6 4 8 3 9 -4 5 -7 -4 -12 -2 -12 4 0 6 -4
8 -10 5 -9 -6 -15 8 -11 29 1 5 -4 4 -13 -3 -12 -10 -16 -8 -21 8 -3 12 -11
21 -16 21 -5 0 -9 7 -9 16 0 14 -3 14 -15 4 -13 -11 -14 -10 -8 6 6 17 5 18
-12 4 -11 -9 -16 -10 -11 -2 4 7 2 12 -4 12 -6 0 -8 5 -4 12 5 8 0 9 -14 6
-12 -4 -25 -1 -29 4 -3 7 -1 8 5 4 7 -4 12 -2 12 5 0 7 -8 9 -21 6 -16 -4 -19
-2 -15 10 6 14 4 14 -11 2 -14 -12 -16 -12 -8 0 6 11 4 13 -7 8 -9 -3 -21 0
-27 6 -6 6 -11 7 -11 2 0 -5 -7 1 -16 14 -12 16 -19 20 -27 12 -13 -13 -31
-15 -23 -3 2 4 -4 9 -15 9 -18 2 -19 0 -7 -15 11 -15 11 -15 -3 -5 -9 7 -20 9
-24 5 -5 -4 -5 -2 -2 5 11 18 -17 22 -31 4 -7 -9 -12 -11 -11 -6 3 24 -2 27
-17 9 -14 -18 -15 -18 -9 6 5 19 4 22 -4 10 -10 -13 -12 -13 -21 0 -5 8 -10
10 -10 4 0 -17 -34 -23 -56 -11 -17 10 -18 9 -5 -7 12 -15 12 -17 0 -14 -8 2
-17 8 -21 13 -4 6 -8 2 -8 -7 0 -10 -7 -18 -16 -18 -8 0 -12 -4 -9 -10 4 -6
-1 -7 -12 -3 -16 6 -17 5 -3 -12 14 -17 14 -18 -10 -5 l-25 13 20 -23 c11 -13
15 -20 8 -17 -6 4 -14 3 -18 -3 -3 -5 -1 -10 4 -10 6 0 11 -7 11 -15 0 -8 -6
-15 -12 -15 -9 0 -9 -3 -2 -8 6 -4 14 -15 17 -26 6 -14 3 -17 -8 -12 -20 7
-19 -4 1 -19 14 -10 14 -13 2 -26 -13 -13 -13 -16 -1 -28 12 -11 12 -15 -4
-28 -17 -14 -17 -14 2 -8 11 3 16 3 13 -1 -4 -4 -3 -15 2 -25 9 -15 6 -17 -23
-14 -20 3 -27 1 -18 -4 11 -7 11 -9 0 -14 -8 -3 0 -4 17 -2 21 2 31 -1 31 -11
0 -10 -4 -11 -11 -4 -7 7 -19 1 -40 -18 -17 -15 -23 -18 -13 -5 11 13 14 23 8
27 -5 4 -8 15 -6 26 2 11 -1 20 -7 20 -7 0 -3 7 8 15 16 13 16 14 2 9 -10 -3
-18 -2 -18 4 0 6 5 12 12 14 7 3 5 7 -6 11 -9 4 -15 3 -11 -2 3 -5 1 -12 -4
-16 -6 -3 -8 3 -6 15 2 11 -1 22 -6 26 -6 4 -6 11 2 20 9 11 9 14 0 14 -7 0
-10 3 -8 8 3 4 -1 12 -8 19 -11 10 -15 10 -19 0 -3 -7 -3 -2 -1 10 3 12 0 25
-6 29 -8 4 -9 3 -5 -4 5 -8 2 -10 -9 -6 -14 6 -14 8 2 19 16 12 15 13 -5 11
-12 0 -21 4 -20 9 2 6 9 9 18 8 9 -2 10 0 2 3 -6 3 -10 10 -7 15 4 5 -1 6 -10
2 -10 -3 -21 0 -26 8 -8 12 -11 12 -20 -1 -9 -13 -10 -12 -5 3 4 13 0 20 -14
24 -11 3 -20 10 -20 15 0 6 -8 4 -17 -3 -9 -8 -14 -9 -10 -3 4 7 0 15 -9 18
-8 3 -12 10 -9 16 4 6 -1 7 -10 3 -13 -5 -14 -7 -3 -14 7 -5 10 -9 6 -9 -4 0
-22 9 -40 20 -38 23 -61 27 -32 5 18 -13 17 -14 -11 -6 -17 5 -29 14 -27 22 2
11 0 11 -10 -1 -15 -17 -43 -26 -33 -10 9 14 -8 13 -23 -2 -9 -9 -12 -9 -12 2
0 9 -5 8 -15 -6 -11 -14 -14 -15 -9 -2 6 18 -10 19 -36 3 -8 -5 -23 -8 -32 -7
-10 2 -18 -2 -18 -9 0 -7 -7 -4 -16 7 -8 10 -13 13 -9 7 3 -7 1 -21 -5 -30
-11 -16 -11 -16 -6 -1 3 10 1 20 -4 23 -6 4 -10 -1 -10 -9 0 -8 -5 -18 -12
-22 -7 -4 -8 -3 -4 4 14 22 -5 12 -36 -20 -18 -18 -29 -25 -25 -15 3 9 2 17
-4 17 -6 0 -7 5 -3 12 4 7 3 8 -5 4 -6 -4 -9 -12 -6 -17 4 -5 1 -9 -4 -9 -6 0
-11 6 -11 13 0 9 -3 8 -9 -2 -5 -8 -14 -10 -21 -6 -8 5 -11 4 -6 -3 3 -6 -3
-13 -14 -17 -11 -4 -18 -11 -15 -16 11 -16 -7 -10 -22 9 -13 15 -14 15 -9 -10
4 -15 3 -29 -2 -32 -8 -5 -9 1 -14 66 -1 20 -6 34 -10 32 -4 -3 -8 -1 -8 4 0
6 -9 8 -20 5 -13 -3 -20 0 -20 8 0 11 -2 11 -10 -1 -6 -10 -10 -11 -10 -3 0 7
-14 12 -32 12 -18 0 -42 2 -53 4 -11 3 -29 0 -40 -6 -17 -9 -18 -8 -8 5 10 12
10 15 -2 15 -8 0 -15 -5 -15 -11 0 -6 -5 -4 -10 4 -5 8 -10 10 -10 4 0 -7 -7
-15 -16 -18 -14 -5 -15 -4 -4 9 7 9 10 18 7 21 -2 3 -7 0 -9 -6z m605 -25 c-3
-9 -8 -14 -10 -11 -3 3 -2 9 2 15 9 16 15 13 8 -4z m-2103 -1 c0 -8 -19 -13
-24 -6 -3 5 1 9 9 9 8 0 15 -2 15 -3z m-1905 -14 c-3 -5 -12 -10 -18 -10 -7 0
-6 4 3 10 19 12 23 12 15 0z m2094 -3 c8 -10 7 -14 -4 -14 -8 0 -15 6 -15 14
0 7 2 13 4 13 2 0 9 -6 15 -13z m2775 4 c3 -5 -1 -11 -9 -14 -9 -4 -12 -1 -8
9 6 16 10 17 17 5z m-4319 -11 c3 -5 1 -10 -4 -10 -6 0 -11 5 -11 10 0 6 2 10
4 10 3 0 8 -4 11 -10z m1600 0 c3 -5 1 -10 -4 -10 -6 0 -11 5 -11 10 0 6 2 10
4 10 3 0 8 -4 11 -10z m-2180 -10 c3 -5 -1 -10 -10 -10 -9 0 -13 5 -10 10 3 6
8 10 10 10 2 0 7 -4 10 -10z m3683 -5 c-2 -5 -8 -10 -15 -11 -6 -1 -9 4 -6 12
6 16 27 15 21 -1z m-2993 -15 c-4 -6 -1 -18 6 -26 10 -12 10 -15 -1 -12 -8 2
-14 -2 -15 -9 0 -6 -3 -14 -6 -17 -8 -9 -5 47 4 62 10 15 21 16 12 2z m3136
-17 c13 -16 12 -17 -3 -4 -16 12 -18 11 -18 -5 0 -16 -2 -17 -10 -4 -9 13 -10
13 -11 0 -1 -8 -1 -18 0 -22 0 -5 -3 -8 -9 -8 -16 0 -12 18 10 40 24 24 24 24
41 3z m-3847 -11 c3 -5 -1 -9 -9 -9 -8 0 -12 4 -9 9 3 4 7 8 9 8 2 0 6 -4 9
-8z m816 -3 c13 -9 13 -10 -2 -6 -9 3 -19 1 -22 -6 -2 -7 -5 -4 -5 6 -1 20 7
21 29 6z m70 2 c0 -4 -11 -7 -24 -7 -14 0 -23 3 -21 6 5 9 45 10 45 1z m418
-86 c-3 -3 -9 2 -12 12 -6 14 -5 15 5 6 7 -7 10 -15 7 -18z m67 -83 c-3 -3
-11 0 -18 7 -9 10 -8 11 6 5 10 -3 15 -9 12 -12z m142 -44 c-3 -8 -6 -5 -6 6
-1 11 2 17 5 13 3 -3 4 -12 1 -19z m-107 -22 c0 -3 -4 -8 -10 -11 -5 -3 -10
-1 -10 4 0 6 5 11 10 11 6 0 10 -2 10 -4z m-1416 -112 c3 -8 2 -12 -4 -9 -6 3
-10 10 -10 16 0 14 7 11 14 -7z m4603 -179 c0 -8 -4 -12 -9 -9 -4 3 -8 9 -8
15 0 5 4 9 8 9 5 0 9 -7 9 -15z m653 -96 c-14 -25 -17 -24 -14 4 3 30 3 29 14
22 7 -4 7 -13 0 -26z m-755 0 c-4 -5 -12 -9 -18 -8 -9 0 -8 2 1 6 6 2 9 10 6
15 -4 7 -2 8 5 4 6 -4 9 -12 6 -17z m499 -137 c3 -5 -1 -9 -9 -9 -8 0 -12 4
-9 9 3 4 7 8 9 8 2 0 6 -4 9 -8z m-4904 -62 c0 -5 -5 -10 -11 -10 -5 0 -7 5
-4 10 3 6 8 10 11 10 2 0 4 -4 4 -10z m-27 -55 c-3 -9 -8 -14 -10 -11 -3 3 -2
9 2 15 9 16 15 13 8 -4z m4207 -4 c0 -6 -4 -12 -8 -15 -5 -3 -9 1 -9 9 0 8 4
15 9 15 4 0 8 -4 8 -9z m-36 -99 c3 -5 -1 -9 -9 -9 -8 0 -12 4 -9 9 3 4 7 8 9
8 2 0 6 -4 9 -8z m66 -65 c-1 -7 -8 -1 -16 13 -9 15 -13 18 -9 6 6 -20 -22
-59 -36 -50 -5 3 -9 1 -9 -4 0 -5 -7 -9 -15 -9 -8 0 -15 4 -15 9 0 4 7 8 15 8
9 0 12 6 9 18 -4 10 -2 13 3 7 11 -13 33 -17 33 -6 0 5 -10 16 -22 25 l-23 17
23 -11 c21 -10 22 -9 18 17 l-5 28 24 -28 c14 -15 25 -33 25 -40z m-4313 -23
c-3 -3 -12 -4 -19 -1 -8 3 -5 6 6 6 11 1 17 -2 13 -5z m4116 -55 c-8 -8 -13
-7 -18 2 -5 8 -4 10 3 5 7 -4 12 -2 12 5 0 7 3 9 7 6 4 -4 2 -12 -4 -18z
m-116 -51 c2 -17 0 -19 -7 -8 -5 8 -6 18 -4 22 8 12 10 10 11 -14z m-127 -27
c0 -5 -7 -12 -16 -15 -14 -5 -15 -4 -4 9 14 17 20 19 20 6z m-2205 -41 c-3 -5
-12 -10 -18 -10 -7 0 -6 4 3 10 19 12 23 12 15 0z m409 -22 c-3 -4 -11 -5 -19
-1 -21 7 -19 12 4 10 11 0 18 -5 15 -9z m-874 -2 c0 -3 -4 -8 -10 -11 -5 -3
-10 -1 -10 4 0 6 5 11 10 11 6 0 10 -2 10 -4z m1320 -16 c0 -5 -2 -10 -4 -10
-3 0 -8 5 -11 10 -3 6 -1 10 4 10 6 0 11 -4 11 -10z m760 0 c0 -5 -4 -10 -10
-10 -5 0 -10 5 -10 10 0 6 5 10 10 10 6 0 10 -4 10 -10z m130 -2 c0 -14 -18
-17 -28 -5 -8 10 -6 13 9 13 10 0 19 -4 19 -8z"/>
<path d="M5427 6746 c-4 -10 -1 -13 8 -9 8 3 12 9 9 14 -7 12 -11 11 -17 -5z"/>
<path d="M6145 6750 c-3 -6 1 -7 9 -4 18 7 21 14 7 14 -6 0 -13 -4 -16 -10z"/>
<path d="M5076 6737 c3 -10 9 -15 12 -12 3 3 0 11 -7 18 -10 9 -11 8 -5 -6z"/>
<path d="M5491 6719 c13 -25 23 -29 39 -18 13 7 13 9 0 10 -8 1 -19 1 -24 0
-5 -1 -6 4 -3 12 3 7 -1 14 -8 14 -10 0 -11 -5 -4 -18z"/>
<path d="M7160 6731 c0 -6 4 -13 10 -16 6 -3 7 1 4 9 -7 18 -14 21 -14 7z"/>
<path d="M8175 6731 c-3 -5 -1 -12 5 -16 6 -4 8 -11 5 -16 -3 -5 1 -6 9 -3 19
7 21 25 4 22 -7 -2 -12 3 -10 10 2 14 -4 16 -13 3z"/>
<path d="M3007 6719 c7 -7 15 -10 18 -7 3 3 -2 9 -12 12 -14 6 -15 5 -6 -5z"/>
<path d="M4990 6710 c-9 -6 -10 -10 -3 -10 6 0 15 5 18 10 8 12 4 12 -15 0z"/>
<path d="M5082 6708 c-12 -6 -21 -15 -20 -20 4 -10 18 -12 17 -2 0 3 8 12 18
20 21 16 16 17 -15 2z"/>
<path d="M8045 6710 c-3 -6 1 -7 9 -4 18 7 21 14 7 14 -6 0 -13 -4 -16 -10z"/>
<path d="M8105 6710 c-3 -6 1 -7 9 -4 18 7 21 14 7 14 -6 0 -13 -4 -16 -10z"/>
<path d="M4930 6699 c0 -5 5 -7 10 -4 6 3 10 8 10 11 0 2 -4 4 -10 4 -5 0 -10
-5 -10 -11z"/>
<path d="M2560 6691 c0 -6 4 -12 8 -15 5 -3 9 1 9 9 0 8 -4 15 -9 15 -4 0 -8
-4 -8 -9z"/>
<path d="M5150 6689 c0 -5 5 -7 10 -4 6 3 10 8 10 11 0 2 -4 4 -10 4 -5 0 -10
-5 -10 -11z"/>
<path d="M8065 6690 c-4 -6 -10 -8 -15 -5 -5 3 -12 0 -16 -7 -4 -7 -4 -10 1
-6 4 4 14 3 22 -3 10 -9 13 -8 13 5 0 10 5 14 10 11 6 -3 10 -1 10 4 0 14 -17
14 -25 1z"/>
<path d="M3455 6670 c-8 -13 5 -13 25 0 13 8 13 10 -2 10 -9 0 -20 -4 -23 -10z"/>
<path d="M6807 6669 c7 -7 15 -10 18 -7 3 3 -2 9 -12 12 -14 6 -15 5 -6 -5z"/>
<path d="M5589 6652 c-15 -17 -15 -20 0 -29 14 -9 17 -6 16 18 0 16 0 29 0 29
0 0 -8 -8 -16 -18z"/>
<path d="M7349 6653 c-13 -17 -13 -17 6 -3 11 8 22 16 24 17 2 2 0 3 -6 3 -6
0 -17 -8 -24 -17z"/>
<path d="M6783 6647 c0 -7 8 -13 18 -13 13 0 15 3 7 13 -6 7 -14 13 -18 13 -3
0 -7 -6 -7 -13z"/>
<path d="M6830 6646 c0 -2 8 -10 18 -17 15 -13 16 -12 3 4 -13 16 -21 21 -21
13z"/>
<path d="M3460 6625 c7 -8 17 -15 22 -15 5 0 3 7 -6 15 -8 8 -18 15 -22 15 -3
0 -1 -7 6 -15z"/>
<path d="M5713 6615 c0 -8 4 -12 9 -9 5 3 6 10 3 15 -9 13 -12 11 -12 -6z"/>
<path d="M6878 6618 c11 -14 10 -17 -5 -20 -15 -3 -14 -5 4 -10 32 -9 37 6 10
28 -16 14 -18 14 -9 2z"/>
<path d="M5620 6611 c0 -9 30 -24 36 -18 2 1 -6 8 -16 15 -11 7 -20 8 -20 3z"/>
<path d="M6820 6616 c0 -2 7 -7 16 -10 8 -3 12 -2 9 4 -6 10 -25 14 -25 6z"/>
<path d="M5735 6601 c-3 -5 0 -13 6 -17 8 -5 9 -3 4 6 -6 10 -4 12 9 7 10 -4
15 -3 11 3 -8 13 -22 13 -30 1z"/>
<path d="M3473 6583 c9 -11 14 -23 10 -28 -5 -4 -2 -5 5 -1 18 10 15 19 -10
35 -22 13 -23 13 -5 -6z"/>
<path d="M5675 6590 c3 -5 8 -10 11 -10 2 0 4 5 4 10 0 6 -5 10 -11 10 -5 0
-7 -4 -4 -10z"/>
<path d="M6820 6596 c0 -2 7 -9 15 -16 9 -7 15 -8 15 -2 0 5 -7 12 -15 16 -8
3 -15 4 -15 2z"/>
<path d="M5696 6575 c-9 -26 -7 -32 5 -12 6 10 9 21 6 23 -2 3 -7 -2 -11 -11z"/>
<path d="M3040 6563 c-13 -15 -12 -16 3 -10 20 7 22 -4 5 -21 -7 -7 -8 -12 -2
-12 5 0 3 -4 -4 -9 -11 -7 -11 -9 1 -14 10 -4 14 0 12 11 -1 9 1 22 5 27 9 12
9 45 1 45 -3 -1 -13 -8 -21 -17z"/>
<path d="M5650 6569 c0 -5 5 -7 10 -4 6 3 10 8 10 11 0 2 -4 4 -10 4 -5 0 -10
-5 -10 -11z"/>
<path d="M5725 6570 c3 -6 1 -10 -6 -10 -7 0 -10 -3 -6 -6 3 -3 13 -2 22 4 16
8 16 9 1 15 -10 4 -15 3 -11 -3z"/>
<path d="M8866 6528 c3 -5 10 -6 15 -3 13 9 11 12 -6 12 -8 0 -12 -4 -9 -9z"/>
<path d="M3923 6516 c0 -8 4 -13 8 -10 4 2 10 0 14 -6 7 -12 25 -4 25 12 0 5
-6 8 -14 5 -7 -3 -18 -1 -23 4 -6 6 -10 4 -10 -5z"/>
<path d="M3986 6508 c3 -5 10 -6 15 -3 13 9 11 12 -6 12 -8 0 -12 -4 -9 -9z"/>
<path d="M8815 6510 c3 -5 8 -10 11 -10 2 0 4 5 4 10 0 6 -5 10 -11 10 -5 0
-7 -4 -4 -10z"/>
<path d="M3097 6483 c3 -7 6 -13 8 -13 2 0 5 6 8 13 3 8 -1 14 -8 14 -7 0 -11
-6 -8 -14z"/>
<path d="M3200 6490 c-9 -6 -10 -10 -3 -10 6 0 15 5 18 10 8 12 4 12 -15 0z"/>
<path d="M3225 6470 c-3 -6 1 -7 9 -4 18 7 21 14 7 14 -6 0 -13 -4 -16 -10z"/>
<path d="M3437 6469 c7 -7 15 -10 18 -7 3 3 -2 9 -12 12 -14 6 -15 5 -6 -5z"/>
<path d="M3188 6463 c7 -3 16 -2 19 1 4 3 -2 6 -13 5 -11 0 -14 -3 -6 -6z"/>
<path d="M3242 6447 c-8 -10 -6 -13 7 -13 11 0 17 6 14 13 -3 7 -6 13 -8 13
-1 0 -7 -6 -13 -13z"/>
<path d="M3350 6456 c0 -2 7 -7 16 -10 8 -3 12 -2 9 4 -6 10 -25 14 -25 6z"/>
<path d="M4070 6451 c0 -5 7 -11 14 -14 10 -4 13 -1 9 9 -6 15 -23 19 -23 5z"/>
<path d="M3190 6419 c-10 -17 -14 -18 -28 -7 -15 11 -16 11 -4 -4 17 -21 48
-16 44 8 -3 15 -2 16 12 5 14 -12 16 -11 10 3 -8 22 -21 20 -34 -5z"/>
<path d="M3310 6430 c0 -4 6 -13 14 -19 11 -9 16 -9 22 0 5 8 3 9 -6 4 -9 -6
-12 -4 -8 7 4 9 0 15 -8 15 -8 0 -14 -4 -14 -7z"/>
<path d="M8860 6436 c0 -2 7 -6 15 -10 8 -3 15 -1 15 4 0 6 -7 10 -15 10 -8 0
-15 -2 -15 -4z"/>
<path d="M3380 6416 c0 -8 4 -17 9 -20 5 -4 7 3 4 14 -6 23 -13 26 -13 6z"/>
<path d="M5746 6404 c-3 -7 3 -18 12 -25 14 -11 15 -11 5 1 -10 10 -9 16 4 25
14 11 14 12 0 12 -9 0 -18 -6 -21 -13z"/>
<path d="M2897 6393 c3 -7 6 -13 8 -13 2 0 5 6 8 13 3 8 -1 14 -8 14 -7 0 -11
-6 -8 -14z"/>
<path d="M4075 6390 c3 -5 8 -10 11 -10 2 0 4 5 4 10 0 6 -5 10 -11 10 -5 0
-7 -4 -4 -10z"/>
<path d="M8860 6328 c0 -4 4 -8 9 -8 6 0 12 4 15 8 3 5 -1 9 -9 9 -8 0 -15 -4
-15 -9z"/>
<path d="M4035 6310 c3 -5 2 -10 -3 -10 -6 0 -13 -8 -16 -17 -6 -15 -5 -15 13
1 18 16 20 36 5 36 -3 0 -2 -4 1 -10z"/>
<path d="M3060 6300 c-8 -5 -12 -12 -9 -15 4 -3 12 1 19 10 14 17 11 19 -10 5z"/>
<path d="M8854 6259 c-3 -6 -3 -13 0 -16 3 -4 6 -1 6 6 0 9 4 9 14 -1 8 -7 11
-17 8 -22 -3 -5 0 -6 6 -2 6 4 9 13 6 21 -7 18 -32 27 -40 14z"/>
<path d="M9606 6258 c3 -5 10 -6 15 -3 13 9 11 12 -6 12 -8 0 -12 -4 -9 -9z"/>
<path d="M4015 6251 c-3 -5 -2 -12 3 -15 5 -3 9 1 9 9 0 17 -3 19 -12 6z"/>
<path d="M4250 6226 c0 -2 8 -10 18 -17 15 -13 16 -12 3 4 -13 16 -21 21 -21
13z"/>
<path d="M8839 6218 c-6 -21 -5 -38 1 -38 5 0 8 9 7 20 -1 17 -5 26 -8 18z"/>
<path d="M3997 6117 c-3 -8 1 -14 8 -14 7 0 11 6 8 14 -3 7 -6 13 -8 13 -2 0
-5 -6 -8 -13z"/>
<path d="M8830 6060 c-8 -5 -12 -11 -10 -14 3 -2 14 2 24 10 22 15 10 19 -14
4z"/>
<path d="M8862 6051 c-11 -7 -10 -10 3 -15 20 -7 38 1 30 15 -7 11 -16 11 -33
0z"/>
<path d="M3054 6012 c4 -3 14 -7 22 -8 9 -1 13 0 10 4 -4 3 -14 7 -22 8 -9 1
-13 0 -10 -4z"/>
<path d="M2900 5981 c0 -6 4 -13 10 -16 6 -3 7 1 4 9 -7 18 -14 21 -14 7z"/>
<path d="M2967 5972 c-15 -16 -15 -19 -2 -19 8 0 13 3 10 5 -3 3 0 11 6 19 17
20 5 16 -14 -5z"/>
<path d="M8820 5975 c0 -2 6 -8 13 -14 10 -8 14 -7 14 2 0 8 -6 14 -14 14 -7
0 -13 -1 -13 -2z"/>
<path d="M8860 5952 c0 -5 7 -9 15 -9 8 0 12 4 9 9 -3 4 -9 8 -15 8 -5 0 -9
-4 -9 -8z"/>
<path d="M8791 5917 c-8 -10 -7 -14 2 -14 8 0 14 6 14 14 0 7 -1 13 -2 13 -2
0 -8 -6 -14 -13z"/>
<path d="M8747 5909 c7 -7 15 -10 18 -7 3 3 -2 9 -12 12 -14 6 -15 5 -6 -5z"/>
<path d="M8927 5897 c-3 -8 1 -14 9 -14 16 0 19 13 5 21 -5 3 -11 0 -14 -7z"/>
<path d="M8700 5892 c0 -7 -5 -10 -11 -6 -8 4 -7 0 1 -15 6 -12 15 -19 21 -16
5 4 9 1 9 -6 0 -7 2 -10 5 -7 3 3 -1 18 -10 34 -8 16 -15 23 -15 16z"/>
<path d="M4315 5850 c-3 -5 -1 -10 4 -10 6 0 11 5 11 10 0 6 -2 10 -4 10 -3 0
-8 -4 -11 -10z"/>
<path d="M3846 5837 c3 -10 9 -15 12 -12 3 3 0 11 -7 18 -10 9 -11 8 -5 -6z"/>
<path d="M8774 5832 c4 -3 14 -7 22 -8 9 -1 13 0 10 4 -4 3 -14 7 -22 8 -9 1
-13 0 -10 -4z"/>
<path d="M8710 5801 c0 -7 -5 -9 -12 -5 -7 5 -8 3 -3 -5 5 -9 10 -10 18 -2 6
6 8 14 4 18 -4 3 -7 1 -7 -6z"/>
<path d="M4290 5750 c0 -5 5 -10 11 -10 5 0 7 5 4 10 -3 6 -8 10 -11 10 -2 0
-4 -4 -4 -10z"/>
<path d="M8677 5735 c-4 -8 -3 -16 1 -19 4 -3 9 4 9 15 2 23 -3 25 -10 4z"/>
<path d="M2606 5720 c5 -8 9 -18 9 -22 0 -3 3 -9 7 -13 3 -4 5 0 4 9 -1 9 -8
22 -16 29 -10 10 -11 9 -4 -3z"/>
<path d="M8726 5708 c3 -5 10 -6 15 -3 13 9 11 12 -6 12 -8 0 -12 -4 -9 -9z"/>
<path d="M8661 5705 c0 -5 4 -17 9 -25 7 -11 10 -11 10 -2 0 7 5 10 12 6 7 -4
8 -3 4 5 -4 6 -11 9 -16 6 -4 -3 -11 1 -13 7 -3 7 -6 9 -6 3z"/>
<path d="M8646 5648 c4 -5 9 -7 12 -4 3 3 15 -2 26 -11 21 -18 21 -18 3 3 -16
20 -52 30 -41 12z"/>
<path d="M2655 5640 c-4 -6 -1 -9 7 -8 7 2 12 -3 10 -10 -1 -8 2 -11 7 -8 5 4
12 0 14 -6 3 -8 6 -8 6 -2 1 18 -36 47 -44 34z"/>
<path d="M8603 5572 c-15 -20 -17 -29 -8 -29 8 0 13 3 12 6 -1 3 4 16 11 29
17 31 10 28 -15 -6z"/>
<path d="M3035 5580 c3 -5 8 -10 11 -10 2 0 4 5 4 10 0 6 -5 10 -11 10 -5 0
-7 -4 -4 -10z"/>
<path d="M2857 5563 c3 -7 6 -13 8 -13 2 0 5 6 8 13 3 8 -1 14 -8 14 -7 0 -11
-6 -8 -14z"/>
<path d="M2906 5563 c10 -7 23 -13 28 -12 6 0 5 3 -2 6 -6 2 -10 8 -8 12 3 4
-4 7 -15 7 -19 0 -19 -1 -3 -13z"/>
<path d="M2950 5570 c0 -5 5 -10 11 -10 5 0 7 5 4 10 -3 6 -8 10 -11 10 -2 0
-4 -4 -4 -10z"/>
<path d="M2985 5570 c-3 -6 1 -7 9 -4 18 7 21 14 7 14 -6 0 -13 -4 -16 -10z"/>
<path d="M3015 5559 c-4 -6 -5 -12 -2 -15 2 -3 7 2 10 11 7 17 1 20 -8 4z"/>
<path d="M8438 5519 c-18 -17 -27 -28 -20 -24 6 3 12 1 12 -6 0 -7 8 -5 20 6
11 10 20 25 20 34 0 14 2 14 10 1 8 -13 10 -12 10 3 0 25 -15 21 -52 -14z m16
-4 c-4 -8 -11 -15 -16 -15 -6 0 -5 6 2 15 7 8 14 15 16 15 2 0 1 -7 -2 -15z"/>
<path d="M4273 5475 c0 -8 4 -12 9 -9 5 3 6 10 3 15 -9 13 -12 11 -12 -6z"/>
<path d="M8371 5463 c-1 -17 16 -25 25 -12 4 7 3 9 -4 5 -5 -3 -13 0 -15 6 -4
9 -6 10 -6 1z"/>
<path d="M8106 5405 c-9 -26 -7 -32 5 -12 6 10 9 21 6 23 -2 3 -7 -2 -11 -11z"/>
<path d="M4410 5394 c0 -8 5 -12 10 -9 6 4 8 11 5 16 -9 14 -15 11 -15 -7z"/>
<path d="M5827 5389 c7 -7 15 -10 18 -7 3 3 -2 9 -12 12 -14 6 -15 5 -6 -5z"/>
<path d="M5184 5378 c-3 -5 -10 -5 -16 -2 -7 4 -8 2 -4 -5 6 -9 11 -9 22 0 11
9 14 9 14 0 0 -7 5 -9 10 -6 6 3 10 10 10 14 0 10 -30 10 -36 -1z"/>
<path d="M6381 5376 c-9 -11 -9 -16 0 -22 7 -4 9 -3 5 4 -3 6 2 12 11 14 12 2
14 6 7 11 -7 4 -17 0 -23 -7z"/>
<path d="M8030 5386 c0 -2 7 -9 15 -16 13 -11 14 -10 9 4 -5 14 -24 23 -24 12z"/>
<path d="M5266 5368 c3 -5 10 -6 15 -3 13 9 11 12 -6 12 -8 0 -12 -4 -9 -9z"/>
<path d="M5955 5370 c-3 -5 -1 -10 4 -10 6 0 11 5 11 10 0 6 -2 10 -4 10 -3 0
-8 -4 -11 -10z"/>
<path d="M7625 5371 c-3 -6 -10 -9 -15 -6 -5 3 -11 1 -15 -4 -3 -6 4 -8 16 -6
25 5 35 13 27 21 -3 3 -9 0 -13 -5z"/>
<path d="M7879 5378 c0 -2 -2 -11 -4 -21 -3 -15 -1 -16 11 -6 7 6 11 15 8 20
-5 9 -13 12 -15 7z"/>
<path d="M6834 5357 c-4 -7 -4 -9 1 -5 4 4 14 3 22 -3 8 -7 13 -8 13 -1 0 15
-28 23 -36 9z"/>
<path d="M6940 5360 c8 -5 20 -10 25 -10 6 0 3 5 -5 10 -8 5 -19 10 -25 10 -5
0 -3 -5 5 -10z"/>
<path d="M7355 5360 c-3 -5 -1 -10 4 -10 6 0 11 5 11 10 0 6 -2 10 -4 10 -3 0
-8 -4 -11 -10z"/>
<path d="M7720 5366 c0 -2 7 -9 15 -16 9 -7 15 -8 15 -2 0 5 -7 12 -15 16 -8
3 -15 4 -15 2z"/>
</g>
</svg>
